<svg width="64" height="64" viewBox="0 0 64 64" xmlns="http://www.w3.org/2000/svg">
  <g fill="none" fill-rule="evenodd">
    <path d="M59 32.7c0-1.9-.2-3.7-.6-5.4H32v10.2h15.1c-.7 3.3-2.6 6.1-5.4 8l8.7 6.8c5.1-4.7 8.1-11.6 8.1-19.6z" fill="#4285F4"/>
    <path d="M32 60c7.3 0 13.4-2.4 17.8-6.6l-8.7-6.8c-2.4 1.6-5.5 2.6-9.1 2.6-7 0-12.9-4.7-15-11.1H8v7c4.3 8.6 13.2 14.9 24 14.9z" fill="#34A853"/>
    <path d="M17 38c-.5-1.6-.8-3.2-.8-4.9 0-1.7.3-3.3.8-4.9v-7H8c-1.8 3.5-2.8 7.5-2.8 11.9S6.2 40.6 8 44.1l9-6.1z" fill="#FBBC05"/>
    <path d="M32 16.3c4 0 7.6 1.4 10.4 4.1l7.8-7.8C45.4 8 39.3 5.7 32 5.7c-10.8 0-19.7 6.2-24 15.1l9 7C19.1 21 25 16.3 32 16.3z" fill="#EA4335"/>
  </g>
</svg>
